# xmcd
#
# Track frame offsets:
#	150
#	10552
#	23080
#	33725
#	44802
#	57165
#	70427
#	81075
#	92065
#	104105
#	114850
#	124575
#	139322
#	151210
#	161200
#
# Disc length: 2335 seconds
#
# Revision: 5
# Processed by: cddbd v1.5.1PL0 Copyright (c) Steve Scherf et al.
# Submitted via: audiograbber 1.83.01
#
DISCID=cb091d0f
DTITLE=Various Artist - Classic Country 1965 - 1969 - Disc 1
DYEAR=1900
DGENRE=Country
TTITLE0=George Jones - Walk Through This World with Me
TTITLE1=Johnny Cash - Jackson
TTITLE2=The Statler Brothers - Flowers on the Wall
TTITLE3=Roger Miller - King of the Road
TTITLE4=Merle Haggard - Okie From Muskogee
TTITLE5=Kenny Rogers - Ruby, Don't Take Your Love to Town
TTITLE6=Johnny Cash - Daddy Sang Bass
TTITLE7=Elvis Presley - Crying In The Chapel
TTITLE8=Eddy Arnold - Make the World Go Away
TTITLE9=Waylon Jennings - Only Daddy That'll Walk the Line
TTITLE10=Loretta Lynn - Don't Come Home A-Drinkin'
TTITLE11=Jeannie C. Riley - Harper Valley P.T.A.
TTITLE12=Henson Cargill - Skip a Rope
TTITLE13=Merle Haggard - Mama Tried
TTITLE14=Glen Campbell - Wichita Lineman
EXTD=
EXTT0=
EXTT1=
EXTT2=
EXTT3=
EXTT4=
EXTT5=
EXTT6=
EXTT7=
EXTT8=
EXTT9=
EXTT10=
EXTT11=
EXTT12=
EXTT13=
EXTT14=
PLAYORDER=
